<svg id="Camada_1" data-name="Camada 1" xmlns="http://www.w3.org/2000/svg" viewBox="0 0 1920 1080"><defs><style>.cls-1{fill:#654145;}.cls-2{fill:#eaa1ce;}</style></defs><path class="cls-1" d="M599.94,531.52c0-17.51,0-20.65-.22-24.25-.23-3.81-1.13-5.61-4.83-6.4a27.16,27.16,0,0,0-3.26-.33c-.78-.12-1.46-.23-1.46-.68,0-.67.56-.9,1.8-.9,2.58,0,5.61,0,12.68.34.79,0,23.13,0,25.72-.11a18.87,18.87,0,0,0,5.16-.67,2.68,2.68,0,0,1,1.24-.45c.33,0,.44.45.44,1a48.17,48.17,0,0,0-.89,5.27c-.12,1.69-.23,3.82-.45,6.74-.12,1.12-.45,1.91-.9,1.91-.67,0-.9-.56-.9-1.46a11.15,11.15,0,0,0-.56-3.71c-.79-2.58-3.14-3.7-8.08-4.15-1.91-.22-14.15-.34-15.39-.34-.44,0-.67.34-.67,1.13v31c0,.79.11,1.13.67,1.13,1.46,0,15.27,0,17.86-.23,3-.22,4.49-.56,5.61-1.91.56-.67.9-1.12,1.35-1.12s.56.22.56.9-.56,2.58-.9,6.29c-.34,3.48-.34,6.06-.45,7.63-.11,1.12-.34,1.68-.79,1.68-.67,0-.78-.89-.78-1.79a10.09,10.09,0,0,0-.45-3.15c-.45-1.68-1.8-3.25-5.84-3.7-3-.34-14.14-.56-16.05-.56a.71.71,0,0,0-.79.78v9.88c0,3.82-.11,16.84,0,19.2.23,4.61.9,7.08,3.71,8.2,1.9.78,4.94,1,9.31,1a37.19,37.19,0,0,0,10.11-1c3.59-1.12,4.83-3.48,5.73-8.31.22-1.23.44-1.68,1-1.68s.68.89.68,1.68-.9,8.53-1.46,10.89c-.79,2.92-1.68,2.92-6.06,2.92-8.31,0-12-.22-16.4-.34s-9.65-.33-14-.33c-2.69,0-5.39.45-8.31.33-1.23,0-1.79-.22-1.79-.89,0-.34.56-.57,1.23-.68a13.73,13.73,0,0,0,2.58-.34c2.36-.56,3.82-2.13,4.05-10.55.11-4.38.22-10.1.22-20.1Z"/><path class="cls-1" d="M661.24,582.38c-1.57-.78-1.68-1.23-1.68-4.26,0-5.62.45-10.11.56-11.9.11-1.24.34-1.8.9-1.8s.78.34.78,1.24a19.55,19.55,0,0,0,.34,4.15c1.68,8.31,9.09,11.45,16.62,11.45,10.78,0,16-7.75,16-14.93,0-7.75-3.25-12.24-12.91-20.21l-5-4.15c-11.9-9.77-14.6-16.73-14.6-24.37,0-12,9-20.21,23.24-20.21a43.26,43.26,0,0,1,10.45,1.13,18.94,18.94,0,0,0,3.92.56c.9,0,1.13.22,1.13.78s-.45,4.27-.45,11.9c0,1.8-.23,2.59-.79,2.59s-.78-.57-.9-1.46a19.82,19.82,0,0,0-1.45-5.62c-.68-1.23-3.71-5.95-14-5.95-7.75,0-13.81,4.83-13.81,13,0,6.4,2.92,10.44,13.7,18.86l3.14,2.47c13.25,10.44,16.39,17.4,16.39,26.38a23.24,23.24,0,0,1-9.54,18.64c-4.83,3.37-10.89,4.72-17,4.72A34,34,0,0,1,661.24,582.38Z"/><path class="cls-1" d="M755.22,551.28c0,10.78,0,19.65.56,24.37.34,3.25,1,5.72,4.38,6.17a47.45,47.45,0,0,0,5.05.45c.68,0,.9.34.9.68,0,.56-.56.89-1.8.89-6.17,0-13.24-.33-13.81-.33s-7.63.33-11,.33c-1.23,0-1.8-.22-1.8-.89,0-.34.23-.68.9-.68a16.94,16.94,0,0,0,3.37-.45c2.25-.45,2.81-2.92,3.26-6.17.56-4.72.56-13.59.56-24.37V503.79c-5.5.11-11.12.11-16.62.23-7,.11-9.65.9-11.45,3.59a19.56,19.56,0,0,0-1.91,3.48c-.34.9-.67,1.12-1.12,1.12s-.56-.33-.56-1c0-1.12,2.24-10.78,2.47-11.67.22-.68.67-2.14,1.12-2.14.78,0,1.91,1.13,4.94,1.35,3.25.34,7.52.56,8.87.56h42.1a44.55,44.55,0,0,0,8-.56c1.69-.22,2.7-.56,3.15-.56s.56.67.56,1.35c0,3.36-.34,11.11-.34,12.35,0,1-.34,1.46-.78,1.46s-.79-.34-.9-1.91c0-.45-.12-.79-.12-1.24-.33-3.37-3-5.95-13.8-6.17-4.72-.12-9.44-.12-14.15-.23Z"/><path class="cls-1" d="M808.89,531.52c0-17.51,0-20.65-.23-24.25-.22-3.81-1.34-5.72-3.81-6.28a14.64,14.64,0,0,0-3.48-.45c-.45,0-.9-.23-.9-.68,0-.67.56-.9,1.79-.9,3.71,0,10.78.34,11.34.34s7.64-.34,11-.34c1.23,0,1.79.23,1.79.9,0,.45-.45.68-.9.68a17.06,17.06,0,0,0-2.8.33c-3,.56-3.93,2.47-4.16,6.4-.22,3.6-.22,6.74-.22,24.25v19.76c0,10.78,0,19.65.56,24.37.34,3.25,1,5.72,4.38,6.17,1.57.23,3.93.45,4.6.45,1,0,1.35.34,1.35.68,0,.56-.45.89-1.68.89-6.18,0-13.37-.33-13.93-.33s-7.63.33-11,.33c-1.23,0-1.8-.22-1.8-.89,0-.34.23-.68,1.24-.68a15.14,15.14,0,0,0,2.92-.34c2.24-.44,2.92-3,3.37-6.28.56-4.72.56-13.59.56-24.37Z"/><path class="cls-1" d="M867.72,551.51c0,16.5.45,23.69,2.47,25.71,1.8,1.8,4.72,2.58,13.47,2.58,6,0,10.89-.11,13.59-3.37a15.64,15.64,0,0,0,2.92-6.73c.11-.9.33-1.46,1-1.46s.67.45.67,1.68a71.37,71.37,0,0,1-1.68,11.23c-.79,2.58-1.12,3-7.08,3-9.65,0-19.19-.67-30.09-.67-3.48,0-6.84.33-11,.33-1.23,0-1.79-.22-1.79-.89,0-.34.22-.68.89-.68a16.94,16.94,0,0,0,3.37-.45c2.25-.45,2.81-2.92,3.26-6.17.56-4.72.56-13.59.56-24.37V531.52c0-17.51,0-20.65-.22-24.25-.23-3.81-1.13-5.61-4.83-6.4a21.47,21.47,0,0,0-3.82-.33c-.45,0-.9-.23-.9-.68,0-.67.56-.9,1.8-.9,5,0,12.12.34,12.68.34s8.76-.34,12.13-.34c1.24,0,1.8.23,1.8.9,0,.45-.45.68-.9.68a26.94,26.94,0,0,0-3.71.33c-3.25.56-4.15,2.47-4.38,6.4-.22,3.6-.22,6.74-.22,24.25Z"/><path class="cls-1" d="M911.17,541.29c0-18.19,13.25-43.9,44.24-43.9,25.26,0,44.12,16,44.12,42.11,0,25.14-17.73,45.92-44.79,45.92C924,585.42,911.17,561.5,911.17,541.29Zm77.59,1.35c0-26.95-16.4-41.43-34.14-41.43-18.75,0-32.78,12.35-32.78,36.94,0,26.16,15.72,43,35.93,43C967.87,581.15,988.76,575.31,988.76,542.64Z"/><path class="cls-1" d="M1064,573.29c-10.89-9.77-13.58-22.57-13.58-33.23,0-7.53,2.58-20.66,12.57-30.65,6.74-6.74,17-12,34.25-12a96.3,96.3,0,0,1,16.28,1.35c4.26.79,7.74,1.12,11.9,1.68a1.07,1.07,0,0,1,1,1.24c0,.9-.34,2.24-.56,6.29-.23,3.7-.23,9.88-.34,11.56s-.34,2.36-1,2.36-.9-.79-.9-2.36c0-4.38-1.79-9-4.71-11.45-3.93-3.37-12.58-6.4-22.46-6.4-14.93,0-21.89,4.38-25.82,8.19-8.2,7.86-10.11,17.86-10.11,29.31,0,21.44,16.51,41.09,40.54,41.09,8.42,0,15-1,19.53-5.61,2.36-2.47,3.82-7.41,4.16-9.43.22-1.24.44-1.69,1.12-1.69s.78.79.78,1.69a115.31,115.31,0,0,1-2.47,14.37c-.67,2.13-.89,2.35-2.92,3.25-4.49,1.8-13,2.59-20.2,2.59C1084.19,585.42,1072.85,581.26,1064,573.29Z"/><path class="cls-1" d="M1209.05,534.56a.6.6,0,0,0,.67-.68v-2.36c0-17.51,0-20.65-.22-24.25-.23-3.81-1.13-5.61-4.83-6.4a21.47,21.47,0,0,0-3.82-.33c-.45,0-.9-.23-.9-.68,0-.67.56-.9,1.8-.9,5,0,12.12.34,12.69.34s7.63-.34,11-.34c1.23,0,1.79.23,1.79.9,0,.45-.44.68-.89.68a17,17,0,0,0-2.81.33c-3,.56-3.93,2.47-4.15,6.4-.23,3.6-.23,6.74-.23,24.25v19.76c0,10.78,0,19.65.56,24.37.34,3.25,1,5.72,4.38,6.17a47.45,47.45,0,0,0,5.05.45c.68,0,.9.34.9.68,0,.56-.56.89-1.79.89-6.18,0-13.25-.33-13.81-.33s-7.64.33-11,.33c-1.23,0-1.79-.22-1.79-.89,0-.34.22-.68.89-.68a16.85,16.85,0,0,0,3.37-.45c2.25-.45,2.81-2.92,3.26-6.17.56-4.72.56-13.59.56-24.37V539.5a.65.65,0,0,0-.67-.68h-47.61c-.33,0-.67.11-.67.68v11.78c0,10.78,0,19.65.56,24.37.34,3.25,1,5.72,4.38,6.17a47.45,47.45,0,0,0,5,.45c.68,0,.9.34.9.68,0,.56-.56.89-1.8.89-6.17,0-13.25-.33-13.81-.33s-7.63.33-11,.33c-1.23,0-1.8-.22-1.8-.89,0-.34.23-.68.9-.68a16.94,16.94,0,0,0,3.37-.45c2.25-.45,2.81-2.92,3.26-6.17.56-4.72.56-13.59.56-24.37V531.52c0-17.51,0-20.65-.23-24.25-.22-3.81-1.12-5.61-4.82-6.4a21.47,21.47,0,0,0-3.82-.33c-.45,0-.9-.23-.9-.68,0-.67.56-.9,1.8-.9,5.05,0,12.12.34,12.68.34s7.64-.34,11-.34c1.23,0,1.79.23,1.79.9,0,.45-.45.68-.9.68a16.94,16.94,0,0,0-2.8.33c-3,.56-3.93,2.47-4.16,6.4-.22,3.6-.22,6.74-.22,24.25v2.36a.6.6,0,0,0,.67.68Z"/><path class="cls-1" d="M1258.9,531.52c0-17.51,0-20.65-.22-24.25-.23-3.81-1.35-5.72-3.82-6.28a14.64,14.64,0,0,0-3.48-.45c-.45,0-.9-.23-.9-.68,0-.67.56-.9,1.8-.9,3.7,0,10.78.34,11.34.34s7.63-.34,11-.34c1.23,0,1.79.23,1.79.9,0,.45-.44.68-.89.68a17,17,0,0,0-2.81.33c-3,.56-3.93,2.47-4.15,6.4-.23,3.6-.23,6.74-.23,24.25v19.76c0,10.78,0,19.65.56,24.37.34,3.25,1,5.72,4.38,6.17,1.57.23,3.93.45,4.6.45,1,0,1.35.34,1.35.68,0,.56-.45.89-1.68.89-6.18,0-13.36-.33-13.92-.33s-7.64.33-11,.33c-1.23,0-1.79-.22-1.79-.89,0-.34.22-.68,1.23-.68a15.05,15.05,0,0,0,2.92-.34c2.25-.44,2.92-3,3.37-6.28.56-4.72.56-13.59.56-24.37Z"/><path class="cls-1" d="M1337.72,585.42c-31.1,0-43.9-23.92-43.9-44.13,0-18.19,13.25-43.9,44.23-43.9,25.27,0,44.13,16.06,44.13,42.11a46.19,46.19,0,0,1-19.87,37.72l23,11.9c24.59,12.69,41.66,13.25,47.27,13.25a63.6,63.6,0,0,0,22.12-4.38,7.18,7.18,0,0,1,1.57-.45.64.64,0,0,1,.67.67c0,.45-.22.79-.89,1.13a85.83,85.83,0,0,1-35.6,7.74c-13.58,0-28.06-4.94-46.25-15l-18.87-10.44C1351.3,583.73,1343.67,585.42,1337.72,585.42Zm33.68-42.78c0-26.95-16.39-41.43-34.13-41.43-18.75,0-32.79,12.35-32.79,36.94,0,26.16,15.72,43,35.93,43C1350.52,581.15,1371.4,575.31,1371.4,542.64Z"/><path class="cls-1" d="M1414.29,547.24c0,16.17,3.6,23.13,8.42,27.73,5.5,5.17,10.56,6.18,17,6.18a23.61,23.61,0,0,0,17.62-8.08c5.17-6.4,6.52-16,6.52-27.51v-14c0-17.51,0-20.65-.23-24.25-.22-3.81-1.12-5.61-4.83-6.4a21.35,21.35,0,0,0-3.81-.33c-.45,0-.9-.23-.9-.68,0-.67.56-.9,1.79-.9,5.06,0,11.23.34,11.9.34s6.07-.34,9.44-.34c1.23,0,1.79.23,1.79.9,0,.45-.45.68-.9.68a16.94,16.94,0,0,0-2.8.33c-3,.68-3.93,2.47-4.16,6.4-.22,3.6-.22,6.74-.22,24.25v12c0,12.12-1.35,25.6-10.33,33.57-8.08,7.18-16.51,8.31-23.13,8.31-3.82,0-15.16-.45-23.13-8-5.5-5.27-9.77-13.13-9.77-29.52v-16.4c0-17.51,0-20.65-.22-24.25-.23-3.81-1.12-5.61-4.83-6.4a21.47,21.47,0,0,0-3.82-.33c-.44,0-.89-.23-.89-.68,0-.67.56-.9,1.79-.9,5.06,0,11.9.34,12.91.34s7.75-.34,11.12-.34c1.24,0,1.8.23,1.8.9,0,.45-.45.68-.9.68a17,17,0,0,0-2.81.33c-3,.45-3.93,2.47-4.15,6.4-.23,3.6-.23,6.74-.23,24.25Z"/><path class="cls-1" d="M1504.23,531.52c0-17.51,0-20.65-.23-24.25-.22-3.81-1.12-5.61-4.83-6.4a26.77,26.77,0,0,0-3.25-.33c-.79-.12-1.46-.23-1.46-.68,0-.67.56-.9,1.79-.9,2.59,0,5.62,0,12.69.34.79,0,23.13,0,25.71-.11a19,19,0,0,0,5.17-.67,2.69,2.69,0,0,1,1.23-.45c.34,0,.45.45.45,1a49.75,49.75,0,0,0-.9,5.27c-.11,1.69-.22,3.82-.45,6.74-.11,1.12-.44,1.91-.89,1.91-.68,0-.9-.56-.9-1.46a11.41,11.41,0,0,0-.56-3.71c-.79-2.58-3.15-3.7-8.09-4.15-1.91-.22-14.14-.34-15.38-.34-.45,0-.67.34-.67,1.13v31c0,.79.11,1.13.67,1.13,1.46,0,15.27,0,17.85-.23,3-.22,4.49-.56,5.62-1.91.56-.67.89-1.12,1.34-1.12s.57.22.57.9-.57,2.58-.9,6.29c-.34,3.48-.34,6.06-.45,7.63-.11,1.12-.34,1.68-.79,1.68-.67,0-.78-.89-.78-1.79a10.39,10.39,0,0,0-.45-3.15c-.45-1.68-1.8-3.25-5.84-3.7-3-.34-14.15-.56-16.06-.56a.7.7,0,0,0-.78.78v9.88c0,3.82-.11,16.84,0,19.2.22,4.61.9,7.08,3.7,8.2,1.91.78,4.94,1,9.32,1a37.23,37.23,0,0,0,10.11-1c3.59-1.12,4.82-3.48,5.72-8.31.23-1.23.45-1.68,1-1.68s.68.89.68,1.68-.9,8.53-1.46,10.89c-.79,2.92-1.69,2.92-6.07,2.92-8.3,0-12-.22-16.39-.34s-9.65-.33-14-.33c-2.7,0-5.39.45-8.31.33-1.24,0-1.8-.22-1.8-.89,0-.34.56-.57,1.24-.68a13.85,13.85,0,0,0,2.58-.34c2.36-.56,3.82-2.13,4-10.55.11-4.38.23-10.1.23-20.1Z"/><path class="cls-2" d="M462.89,627.09A87.09,87.09,0,1,1,550,540,87.19,87.19,0,0,1,462.89,627.09Zm0-166.75A79.66,79.66,0,1,0,542.55,540,79.76,79.76,0,0,0,462.89,460.34Z"/><path class="cls-2" d="M410.05,513.4c0,.29.05.57.09.85.7,5.91,4.21,11.33,10.08,15.42a33.51,33.51,0,0,0,6.21,3.41A58.45,58.45,0,0,0,426,540c0,16.94,7.05,32,18,41.57a31.74,31.74,0,0,0,10.8-2.19c-9.15-5.46-16.16-15.25-19.08-27.07a35.45,35.45,0,0,1,7.31-.76c9,0,17.11,3.36,21.45,8.23a.59.59,0,0,0,1-.39v-39a.6.6,0,0,0-1-.4c-4.34,4.83-12.42,8.15-21.45,8.15a36.18,36.18,0,0,1-7.23-.72h0c-1-.21-2-.47-3-.76l-.1,0-.87-.28-.15-.05-.82-.3-.16-.06-.8-.32-.14-.06-.8-.35-.09,0-.83-.4h0c-5.91-3-9.8-7.61-9.8-12.7,0-4.41,2.91-8.48,7.52-11.42A39.87,39.87,0,0,1,443.07,496h0a46.89,46.89,0,0,1,11.52-7.15,47.61,47.61,0,0,0-10.12-1.08c-.55,0-1.09,0-1.64,0a40.5,40.5,0,0,0-21.69,6l0,0c-.32.2-.63.41-.93.62C413.63,499,410,505.27,410,512c0,.36,0,.72,0,1.08C410,513.21,410.05,513.31,410.05,513.4Zm33,22.92A43.44,43.44,0,0,0,457.3,534v11.78A42.94,42.94,0,0,0,443,543.35a44.44,44.44,0,0,0-8.62.83c-.11-1.38-.17-2.77-.17-4.18s.07-3,.2-4.5A44.92,44.92,0,0,0,443,536.32Z"/><path class="cls-2" d="M458.35,490c-.4.14-.81.28-1.21.44l-.19.08c-13.11,5.11-23.56,16.9-28.25,31.83a29.37,29.37,0,0,0,7.75,2.68c3.74-12.17,11.89-21.86,22.16-26.35a43.62,43.62,0,0,1,26.11,28.29,5.44,5.44,0,0,0,5.83,3.87l3.18-.38h0l13.9-1.65h0l8-.95a.12.12,0,0,0,.11-.15c-4.83-22.9-22.83-40-44.24-40a39.74,39.74,0,0,0-12.86,2.14h0Zm13,5.95c14.58-.06,27.25,9.81,33.43,24.2a.57.57,0,0,1-.46.79l-12.27,1.45a.56.56,0,0,1-.6-.37A52.2,52.2,0,0,0,471.4,495.92Z"/><path class="cls-2" d="M507.63,551.22l-13.9-1.65h0l-3.18-.38a5.44,5.44,0,0,0-5.83,3.87,43.62,43.62,0,0,1-26.09,28.29h0l-.13,0c-.48.18-1,.35-1.45.51l-.58.19-1,.31-.66.19-1,.25-.67.17-1.18.24-.83.16-1.26.2-.78.1-.93.11-.83.07c-1.13.09-2.27.15-3.42.15h-.76l-.6,0c-.71,0-1.4-.06-2.1-.12v0c-2.18-.21-4.41-.49-4.41-.49a33.51,33.51,0,0,1-5.21-1.5h0a29,29,0,0,1-4.54-2.21l0,0c-4.89-3-8-7.22-8-11.83,0-4.36,2.79-8.38,7.24-11.34a.47.47,0,0,0,.19-.5,61.86,61.86,0,0,1-1.59-8.22,33.32,33.32,0,0,0-3.83,2.32c-5.73,4-9.22,9.33-10,15.13h0l0,.27c0,.34-.08.68-.1,1a.66.66,0,0,0,0,.14c0,.39,0,.78,0,1.17,0,6.81,3.62,13.11,10.21,17.74.46.33.93.64,1.41.94l.06,0,0,0a40.5,40.5,0,0,0,21.19,5.72l1.62,0a48.1,48.1,0,0,0,14.16-2.13,40.11,40.11,0,0,0,12.87,2.13c21.41,0,39.41-17.06,44.24-40a.12.12,0,0,0-.11-.15l-8-.95Zm-2.8,8.66c-6.18,14.39-18.85,24.26-33.43,24.2A52.2,52.2,0,0,0,491.5,558a.56.56,0,0,1,.61-.37l12.26,1.45A.57.57,0,0,1,504.83,559.88Z"/></svg>